<svg width="411" height="298" viewBox="0 0 411 298" fill="none" xmlns="http://www.w3.org/2000/svg">
<g clip-path="url(#clip0_54_227)">
<path d="M239.407 52.5339C247.11 52.5339 253.354 46.3088 253.354 38.6297C253.354 30.9506 247.11 24.7254 239.407 24.7254C231.704 24.7254 225.46 30.9506 225.46 38.6297C225.46 46.3088 231.704 52.5339 239.407 52.5339Z" fill="#F2F2F2"/>
<path d="M347.6 258.889C368.332 243.148 378.233 216.696 372.034 191.462C371.88 190.835 371.718 190.209 371.547 189.585C367.437 174.607 357.27 160.371 342.451 155.585C330.009 151.567 316.428 154.657 303.447 153.059C277.966 149.922 258.211 129.368 244.311 107.848C230.411 86.3281 219.728 62.2396 201.258 44.461C170.812 15.1559 121.148 8.84647 83.4001 27.9219C45.6522 46.9974 21.6072 89.3178 22.6326 131.495C23.6581 173.673 48.7746 213.998 85.25 235.393C98.6496 243.252 114.147 248.82 129.571 246.872C142.954 245.181 155.114 238.013 168.434 235.885C189.375 232.538 210.184 241.978 228.297 252.977C246.41 263.977 263.906 277.015 284.489 282.114C304.475 287.066 329.236 272.834 347.6 258.889Z" fill="#F2F2F2"/>
<path d="M317.815 28.8075C317.36 28.5055 316.901 28.2191 316.446 27.9275C303.31 19.5517 289.229 12.7473 274.496 7.65488L271.08 54.6364H249.423V0.796677C248.059 0.515475 246.686 0.249896 245.312 -6.10352e-05V54.6364H219.575C205.407 54.6364 191.819 49.0255 181.801 39.038C171.782 29.0505 166.154 15.5045 166.154 1.37997V1.37992C164.775 1.67675 163.406 1.9944 162.038 2.33289V54.6365H141.076L137.821 9.83681C122.681 15.6256 108.307 23.238 95.0196 32.5048C94.7898 32.661 94.56 32.8225 94.3353 32.9787C93.1809 33.7858 92.0422 34.6086 90.9087 35.4418V214.677H152.688L151.596 199.601L145.589 116.829H266.561L260.554 199.601L259.462 214.677H320.557V30.6197C319.648 30.0053 318.734 29.4012 317.815 28.8075ZM162.038 103.159H144.596L141.374 58.7399H162.038V103.159ZM245.312 103.159H216.018V102.279C216.018 101.856 215.935 101.437 215.772 101.047C215.609 100.656 215.371 100.301 215.071 100.002C214.771 99.703 214.414 99.466 214.022 99.3046C213.629 99.1432 213.209 99.0604 212.785 99.0611H200.05C199.626 99.061 199.206 99.1441 198.814 99.3058C198.422 99.4675 198.067 99.7045 197.767 100.003C197.467 100.302 197.229 100.657 197.067 101.048C196.905 101.438 196.821 101.857 196.822 102.279V103.159H166.154V58.7399H245.312V103.159ZM249.423 103.159V58.7399H270.782L267.559 103.159H249.423Z" fill="#3F3D56"/>
<path d="M0 226.154C4.53784 231.515 9.44602 236.552 14.6887 241.23L396.311 241.751C401.554 237.073 406.462 232.036 411 226.675L0 226.154Z" fill="#3F3D56"/>
<path d="M258.791 177.882V222.512C258.791 223.08 259.018 223.626 259.421 224.028C259.825 224.43 260.372 224.656 260.942 224.657H327.284C327.854 224.656 328.401 224.43 328.805 224.028C329.208 223.626 329.435 223.08 329.436 222.512V177.882C329.434 177.314 329.207 176.769 328.804 176.367C328.4 175.966 327.854 175.74 327.284 175.739H260.942C260.372 175.74 259.826 175.966 259.423 176.367C259.019 176.769 258.792 177.314 258.791 177.882V177.882Z" fill="#3F3D56"/>
<path d="M260.347 178.437V221.961C260.348 222.265 260.469 222.556 260.684 222.771C260.9 222.986 261.192 223.107 261.497 223.107H326.732C327.036 223.107 327.329 222.986 327.544 222.771C327.76 222.556 327.881 222.265 327.881 221.961V178.437C327.881 178.133 327.76 177.841 327.545 177.626C327.329 177.41 327.037 177.289 326.732 177.288H261.497C261.192 177.289 260.899 177.41 260.684 177.626C260.468 177.841 260.347 178.133 260.347 178.437V178.437Z" fill="#8405D1"/>
<path d="M257.403 231.216C257.525 231.368 257.679 231.49 257.855 231.574C258.031 231.658 258.224 231.701 258.418 231.7H329.455C329.649 231.7 329.841 231.656 330.016 231.573C330.191 231.489 330.346 231.368 330.468 231.218C330.591 231.067 330.678 230.891 330.723 230.703C330.769 230.515 330.772 230.319 330.732 230.129L329.63 224.908C329.584 224.695 329.486 224.497 329.343 224.331C329.201 224.166 329.02 224.039 328.816 223.961C328.668 223.903 328.511 223.874 328.352 223.874H259.517C259.358 223.874 259.201 223.903 259.053 223.961C258.849 224.039 258.667 224.166 258.525 224.331C258.383 224.497 258.285 224.695 258.239 224.908L257.136 230.129C257.097 230.319 257.101 230.515 257.147 230.703C257.193 230.89 257.281 231.066 257.403 231.216V231.216Z" fill="#2F2E41"/>
<path d="M325.915 226.123H327.592C327.733 226.123 327.847 226.009 327.847 225.869V225.069C327.847 224.928 327.733 224.814 327.592 224.814H325.915C325.774 224.814 325.66 224.928 325.66 225.069V225.869C325.66 226.009 325.774 226.123 325.915 226.123Z" fill="#3F3D56"/>
<path d="M321.539 226.123H323.217C323.357 226.123 323.472 226.009 323.472 225.869V225.069C323.472 224.928 323.357 224.814 323.217 224.814H321.539C321.398 224.814 321.284 224.928 321.284 225.069V225.869C321.284 226.009 321.398 226.123 321.539 226.123Z" fill="#3F3D56"/>
<path d="M317.163 226.123H318.841C318.982 226.123 319.096 226.009 319.096 225.869V225.069C319.096 224.928 318.982 224.814 318.841 224.814H317.163C317.022 224.814 316.908 224.928 316.908 225.069V225.869C316.908 226.009 317.022 226.123 317.163 226.123Z" fill="#3F3D56"/>
<path d="M312.787 226.123H314.465C314.606 226.123 314.72 226.009 314.72 225.869V225.069C314.72 224.928 314.606 224.814 314.465 224.814H312.787C312.646 224.814 312.532 224.928 312.532 225.069V225.869C312.532 226.009 312.646 226.123 312.787 226.123Z" fill="#3F3D56"/>
<path d="M308.411 226.123H310.089C310.23 226.123 310.344 226.009 310.344 225.869V225.069C310.344 224.928 310.23 224.814 310.089 224.814H308.411C308.271 224.814 308.156 224.928 308.156 225.069V225.869C308.156 226.009 308.271 226.123 308.411 226.123Z" fill="#3F3D56"/>
<path d="M304.036 226.123H305.713C305.854 226.123 305.969 226.009 305.969 225.869V225.069C305.969 224.928 305.854 224.814 305.713 224.814H304.036C303.895 224.814 303.781 224.928 303.781 225.069V225.869C303.781 226.009 303.895 226.123 304.036 226.123Z" fill="#3F3D56"/>
<path d="M299.66 226.123H301.338C301.479 226.123 301.593 226.009 301.593 225.869V225.069C301.593 224.928 301.479 224.814 301.338 224.814H299.66C299.519 224.814 299.405 224.928 299.405 225.069V225.869C299.405 226.009 299.519 226.123 299.66 226.123Z" fill="#3F3D56"/>
<path d="M295.284 226.123H296.962C297.103 226.123 297.217 226.009 297.217 225.869V225.069C297.217 224.928 297.103 224.814 296.962 224.814H295.284C295.143 224.814 295.029 224.928 295.029 225.069V225.869C295.029 226.009 295.143 226.123 295.284 226.123Z" fill="#3F3D56"/>
<path d="M290.908 226.123H292.586C292.727 226.123 292.841 226.009 292.841 225.869V225.069C292.841 224.928 292.727 224.814 292.586 224.814H290.908C290.768 224.814 290.653 224.928 290.653 225.069V225.869C290.653 226.009 290.768 226.123 290.908 226.123Z" fill="#3F3D56"/>
<path d="M286.533 226.123H288.211C288.351 226.123 288.466 226.009 288.466 225.869V225.069C288.466 224.928 288.351 224.814 288.211 224.814H286.533C286.392 224.814 286.278 224.928 286.278 225.069V225.869C286.278 226.009 286.392 226.123 286.533 226.123Z" fill="#3F3D56"/>
<path d="M282.157 226.123H283.835C283.976 226.123 284.09 226.009 284.09 225.869V225.069C284.09 224.928 283.976 224.814 283.835 224.814H282.157C282.016 224.814 281.902 224.928 281.902 225.069V225.869C281.902 226.009 282.016 226.123 282.157 226.123Z" fill="#3F3D56"/>
<path d="M277.781 226.123H279.459C279.6 226.123 279.714 226.009 279.714 225.869V225.069C279.714 224.928 279.6 224.814 279.459 224.814H277.781C277.64 224.814 277.526 224.928 277.526 225.069V225.869C277.526 226.009 277.64 226.123 277.781 226.123Z" fill="#3F3D56"/>
<path d="M273.405 226.123H275.083C275.224 226.123 275.338 226.009 275.338 225.869V225.069C275.338 224.928 275.224 224.814 275.083 224.814H273.405C273.264 224.814 273.15 224.928 273.15 225.069V225.869C273.15 226.009 273.264 226.123 273.405 226.123Z" fill="#3F3D56"/>
<path d="M269.03 226.123H270.707C270.848 226.123 270.962 226.009 270.962 225.869V225.069C270.962 224.928 270.848 224.814 270.707 224.814H269.03C268.889 224.814 268.774 224.928 268.774 225.069V225.869C268.774 226.009 268.889 226.123 269.03 226.123Z" fill="#3F3D56"/>
<path d="M264.654 226.123H266.332C266.473 226.123 266.587 226.009 266.587 225.869V225.069C266.587 224.928 266.473 224.814 266.332 224.814H264.654C264.513 224.814 264.399 224.928 264.399 225.069V225.869C264.399 226.009 264.513 226.123 264.654 226.123Z" fill="#3F3D56"/>
<path d="M260.278 226.123H261.956C262.097 226.123 262.211 226.009 262.211 225.869V225.069C262.211 224.928 262.097 224.814 261.956 224.814H260.278C260.137 224.814 260.023 224.928 260.023 225.069V225.869C260.023 226.009 260.137 226.123 260.278 226.123Z" fill="#3F3D56"/>
<path d="M325.966 228.304H327.644C327.785 228.304 327.899 228.19 327.899 228.05V227.25C327.899 227.109 327.785 226.995 327.644 226.995H325.966C325.825 226.995 325.711 227.109 325.711 227.25V228.05C325.711 228.19 325.825 228.304 325.966 228.304Z" fill="#3F3D56"/>
<path d="M321.59 228.304H323.268C323.409 228.304 323.523 228.19 323.523 228.05V227.25C323.523 227.109 323.409 226.995 323.268 226.995H321.59C321.45 226.995 321.335 227.109 321.335 227.25V228.05C321.335 228.19 321.45 228.304 321.59 228.304Z" fill="#3F3D56"/>
<path d="M317.215 228.304H318.893C319.033 228.304 319.148 228.19 319.148 228.05V227.25C319.148 227.109 319.033 226.995 318.893 226.995H317.215C317.074 226.995 316.96 227.109 316.96 227.25V228.05C316.96 228.19 317.074 228.304 317.215 228.304Z" fill="#3F3D56"/>
<path d="M312.839 228.304H314.517C314.658 228.304 314.772 228.19 314.772 228.05V227.25C314.772 227.109 314.658 226.995 314.517 226.995H312.839C312.698 226.995 312.584 227.109 312.584 227.25V228.05C312.584 228.19 312.698 228.304 312.839 228.304Z" fill="#3F3D56"/>
<path d="M308.463 228.304H310.141C310.282 228.304 310.396 228.19 310.396 228.05V227.25C310.396 227.109 310.282 226.995 310.141 226.995H308.463C308.322 226.995 308.208 227.109 308.208 227.25V228.05C308.208 228.19 308.322 228.304 308.463 228.304Z" fill="#3F3D56"/>
<path d="M304.087 228.304H305.765C305.906 228.304 306.02 228.19 306.02 228.05V227.25C306.02 227.109 305.906 226.995 305.765 226.995H304.087C303.947 226.995 303.832 227.109 303.832 227.25V228.05C303.832 228.19 303.947 228.304 304.087 228.304Z" fill="#3F3D56"/>
<path d="M299.712 228.304H301.39C301.53 228.304 301.645 228.19 301.645 228.05V227.25C301.645 227.109 301.53 226.995 301.39 226.995H299.712C299.571 226.995 299.457 227.109 299.457 227.25V228.05C299.457 228.19 299.571 228.304 299.712 228.304Z" fill="#3F3D56"/>
<path d="M295.336 228.304H297.014C297.154 228.304 297.269 228.19 297.269 228.05V227.25C297.269 227.109 297.154 226.995 297.014 226.995H295.336C295.195 226.995 295.081 227.109 295.081 227.25V228.05C295.081 228.19 295.195 228.304 295.336 228.304Z" fill="#3F3D56"/>
<path d="M290.96 228.304H292.638C292.779 228.304 292.893 228.19 292.893 228.05V227.25C292.893 227.109 292.779 226.995 292.638 226.995H290.96C290.819 226.995 290.705 227.109 290.705 227.25V228.05C290.705 228.19 290.819 228.304 290.96 228.304Z" fill="#3F3D56"/>
<path d="M286.584 228.304H288.262C288.403 228.304 288.517 228.19 288.517 228.05V227.25C288.517 227.109 288.403 226.995 288.262 226.995H286.584C286.444 226.995 286.329 227.109 286.329 227.25V228.05C286.329 228.19 286.444 228.304 286.584 228.304Z" fill="#3F3D56"/>
<path d="M282.209 228.304H283.886C284.027 228.304 284.141 228.19 284.141 228.05V227.25C284.141 227.109 284.027 226.995 283.886 226.995H282.209C282.068 226.995 281.953 227.109 281.953 227.25V228.05C281.953 228.19 282.068 228.304 282.209 228.304Z" fill="#3F3D56"/>
<path d="M277.833 228.304H279.511C279.651 228.304 279.766 228.19 279.766 228.05V227.25C279.766 227.109 279.651 226.995 279.511 226.995H277.833C277.692 226.995 277.578 227.109 277.578 227.25V228.05C277.578 228.19 277.692 228.304 277.833 228.304Z" fill="#3F3D56"/>
<path d="M273.457 228.304H275.135C275.276 228.304 275.39 228.19 275.39 228.05V227.25C275.39 227.109 275.276 226.995 275.135 226.995H273.457C273.316 226.995 273.202 227.109 273.202 227.25V228.05C273.202 228.19 273.316 228.304 273.457 228.304Z" fill="#3F3D56"/>
<path d="M269.081 228.304H270.759C270.9 228.304 271.014 228.19 271.014 228.05V227.25C271.014 227.109 270.9 226.995 270.759 226.995H269.081C268.94 226.995 268.826 227.109 268.826 227.25V228.05C268.826 228.19 268.94 228.304 269.081 228.304Z" fill="#3F3D56"/>
<path d="M264.706 228.304H266.383C266.524 228.304 266.638 228.19 266.638 228.05V227.25C266.638 227.109 266.524 226.995 266.383 226.995H264.706C264.565 226.995 264.451 227.109 264.451 227.25V228.05C264.451 228.19 264.565 228.304 264.706 228.304Z" fill="#3F3D56"/>
<path d="M260.33 228.304H262.008C262.148 228.304 262.263 228.19 262.263 228.05V227.25C262.263 227.109 262.148 226.995 262.008 226.995H260.33C260.189 226.995 260.075 227.109 260.075 227.25V228.05C260.075 228.19 260.189 228.304 260.33 228.304Z" fill="#3F3D56"/>
<path d="M289.647 230.922H306.64C306.781 230.922 306.895 230.808 306.895 230.667V229.867C306.895 229.727 306.781 229.613 306.64 229.613H289.647C289.507 229.613 289.392 229.727 289.392 229.867V230.667C289.392 230.808 289.507 230.922 289.647 230.922Z" fill="#3F3D56"/>
<path d="M271.644 186.81H270.158C269.708 186.81 269.343 187.174 269.343 187.623C269.343 188.072 269.708 188.436 270.158 188.436H271.644C272.094 188.436 272.459 188.072 272.459 187.623C272.459 187.174 272.094 186.81 271.644 186.81Z" fill="white"/>
<path d="M288.632 186.81H287.147C286.697 186.81 286.331 187.174 286.331 187.623C286.331 188.072 286.697 188.436 287.147 188.436H288.632C289.083 188.436 289.448 188.072 289.448 187.623C289.448 187.174 289.083 186.81 288.632 186.81Z" fill="white"/>
<path d="M293.446 186.81H291.96C291.51 186.81 291.145 187.174 291.145 187.623C291.145 188.072 291.51 188.436 291.96 188.436H293.446C293.896 188.436 294.261 188.072 294.261 187.623C294.261 187.174 293.896 186.81 293.446 186.81Z" fill="white"/>
<path d="M284.011 186.675H274.779C274.329 186.675 273.964 187.039 273.964 187.488C273.964 187.937 274.329 188.301 274.779 188.301H284.011C284.462 188.301 284.827 187.937 284.827 187.488C284.827 187.039 284.462 186.675 284.011 186.675Z" fill="white"/>
<path d="M306.663 186.675H297.431C296.98 186.675 296.615 187.039 296.615 187.488C296.615 187.937 296.98 188.301 297.431 188.301H306.663C307.113 188.301 307.478 187.937 307.478 187.488C307.478 187.039 307.113 186.675 306.663 186.675Z" fill="white"/>
<path d="M276.174 190.48H274.689C274.238 190.48 273.873 190.844 273.873 191.293C273.873 191.742 274.238 192.106 274.689 192.106H276.174C276.624 192.106 276.989 191.742 276.989 191.293C276.989 190.844 276.624 190.48 276.174 190.48Z" fill="white"/>
<path d="M293.163 190.48H291.677C291.227 190.48 290.862 190.844 290.862 191.293C290.862 191.742 291.227 192.106 291.677 192.106H293.163C293.613 192.106 293.978 191.742 293.978 191.293C293.978 190.844 293.613 190.48 293.163 190.48Z" fill="white"/>
<path d="M297.976 190.48H296.491C296.04 190.48 295.675 190.844 295.675 191.293C295.675 191.742 296.04 192.106 296.491 192.106H297.976C298.426 192.106 298.791 191.742 298.791 191.293C298.791 190.844 298.426 190.48 297.976 190.48Z" fill="white"/>
<path d="M288.542 190.344H279.31C278.859 190.344 278.494 190.708 278.494 191.157C278.494 191.606 278.859 191.97 279.31 191.97H288.542C288.992 191.97 289.357 191.606 289.357 191.157C289.357 190.708 288.992 190.344 288.542 190.344Z" fill="white"/>
<path d="M311.193 190.344H301.961C301.511 190.344 301.146 190.708 301.146 191.157C301.146 191.606 301.511 191.97 301.961 191.97H311.193C311.643 191.97 312.009 191.606 312.009 191.157C312.009 190.708 311.643 190.344 311.193 190.344Z" fill="white"/>
<path d="M280.704 194.149H279.219C278.769 194.149 278.403 194.513 278.403 194.962C278.403 195.411 278.769 195.775 279.219 195.775H280.704C281.155 195.775 281.52 195.411 281.52 194.962C281.52 194.513 281.155 194.149 280.704 194.149Z" fill="white"/>
<path d="M297.693 194.149H296.208C295.757 194.149 295.392 194.513 295.392 194.962C295.392 195.411 295.757 195.775 296.208 195.775H297.693C298.143 195.775 298.508 195.411 298.508 194.962C298.508 194.513 298.143 194.149 297.693 194.149Z" fill="white"/>
<path d="M302.506 194.149H301.021C300.571 194.149 300.206 194.513 300.206 194.962C300.206 195.411 300.571 195.775 301.021 195.775H302.506C302.957 195.775 303.322 195.411 303.322 194.962C303.322 194.513 302.957 194.149 302.506 194.149Z" fill="white"/>
<path d="M293.072 194.014H283.84C283.389 194.014 283.024 194.378 283.024 194.827C283.024 195.276 283.389 195.64 283.84 195.64H293.072C293.522 195.64 293.887 195.276 293.887 194.827C293.887 194.378 293.522 194.014 293.072 194.014Z" fill="white"/>
<path d="M315.723 194.014H306.491C306.041 194.014 305.676 194.378 305.676 194.827C305.676 195.276 306.041 195.64 306.491 195.64H315.723C316.174 195.64 316.539 195.276 316.539 194.827C316.539 194.378 316.174 194.014 315.723 194.014Z" fill="white"/>
<path d="M285.235 197.819H283.749C283.299 197.819 282.934 198.183 282.934 198.632C282.934 199.081 283.299 199.445 283.749 199.445H285.235C285.685 199.445 286.05 199.081 286.05 198.632C286.05 198.183 285.685 197.819 285.235 197.819Z" fill="white"/>
<path d="M302.223 197.819H300.738C300.287 197.819 299.922 198.183 299.922 198.632C299.922 199.081 300.287 199.445 300.738 199.445H302.223C302.674 199.445 303.039 199.081 303.039 198.632C303.039 198.183 302.674 197.819 302.223 197.819Z" fill="white"/>
<path d="M307.037 197.819H305.551C305.101 197.819 304.736 198.183 304.736 198.632C304.736 199.081 305.101 199.445 305.551 199.445H307.037C307.487 199.445 307.852 199.081 307.852 198.632C307.852 198.183 307.487 197.819 307.037 197.819Z" fill="white"/>
<path d="M297.602 197.683H288.37C287.92 197.683 287.555 198.047 287.555 198.496C287.555 198.945 287.92 199.309 288.37 199.309H297.602C298.053 199.309 298.418 198.945 298.418 198.496C298.418 198.047 298.053 197.683 297.602 197.683Z" fill="white"/>
<path d="M288.632 212.41H287.147C286.697 212.41 286.331 212.774 286.331 213.223C286.331 213.672 286.697 214.036 287.147 214.036H288.632C289.083 214.036 289.448 213.672 289.448 213.223C289.448 212.774 289.083 212.41 288.632 212.41Z" fill="white"/>
<path d="M293.446 212.41H291.96C291.51 212.41 291.145 212.774 291.145 213.223C291.145 213.672 291.51 214.036 291.96 214.036H293.446C293.896 214.036 294.261 213.672 294.261 213.223C294.261 212.774 293.896 212.41 293.446 212.41Z" fill="white"/>
<path d="M306.663 212.546H297.431C296.98 212.546 296.615 212.91 296.615 213.359C296.615 213.808 296.98 214.172 297.431 214.172H306.663C307.113 214.172 307.478 213.808 307.478 213.359C307.478 212.91 307.113 212.546 306.663 212.546Z" fill="white"/>
<path d="M271.644 212.41H270.158C269.708 212.41 269.343 212.774 269.343 213.223C269.343 213.672 269.708 214.036 270.158 214.036H271.644C272.094 214.036 272.459 213.672 272.459 213.223C272.459 212.774 272.094 212.41 271.644 212.41Z" fill="white"/>
<path d="M284.011 212.546H274.779C274.329 212.546 273.964 212.91 273.964 213.359C273.964 213.808 274.329 214.172 274.779 214.172H284.011C284.462 214.172 284.827 213.808 284.827 213.359C284.827 212.91 284.462 212.546 284.011 212.546Z" fill="white"/>
<path d="M276.174 208.741H274.689C274.238 208.741 273.873 209.105 273.873 209.554C273.873 210.003 274.238 210.367 274.689 210.367H276.174C276.624 210.367 276.989 210.003 276.989 209.554C276.989 209.105 276.624 208.741 276.174 208.741Z" fill="white"/>
<path d="M293.163 208.741H291.677C291.227 208.741 290.862 209.105 290.862 209.554C290.862 210.003 291.227 210.367 291.677 210.367H293.163C293.613 210.367 293.978 210.003 293.978 209.554C293.978 209.105 293.613 208.741 293.163 208.741Z" fill="white"/>
<path d="M297.976 208.741H296.491C296.04 208.741 295.675 209.105 295.675 209.554C295.675 210.003 296.04 210.367 296.491 210.367H297.976C298.426 210.367 298.791 210.003 298.791 209.554C298.791 209.105 298.426 208.741 297.976 208.741Z" fill="white"/>
<path d="M288.542 208.876H279.31C278.859 208.876 278.494 209.24 278.494 209.689C278.494 210.138 278.859 210.502 279.31 210.502H288.542C288.992 210.502 289.357 210.138 289.357 209.689C289.357 209.24 288.992 208.876 288.542 208.876Z" fill="white"/>
<path d="M280.704 205.071H279.219C278.769 205.071 278.403 205.435 278.403 205.884C278.403 206.333 278.769 206.697 279.219 206.697H280.704C281.155 206.697 281.52 206.333 281.52 205.884C281.52 205.435 281.155 205.071 280.704 205.071Z" fill="white"/>
<path d="M297.693 205.071H296.208C295.757 205.071 295.392 205.435 295.392 205.884C295.392 206.333 295.757 206.697 296.208 206.697H297.693C298.143 206.697 298.508 206.333 298.508 205.884C298.508 205.435 298.143 205.071 297.693 205.071Z" fill="white"/>
<path d="M302.506 205.071H301.021C300.571 205.071 300.206 205.435 300.206 205.884C300.206 206.333 300.571 206.697 301.021 206.697H302.506C302.957 206.697 303.322 206.333 303.322 205.884C303.322 205.435 302.957 205.071 302.506 205.071Z" fill="white"/>
<path d="M293.072 205.207H283.84C283.389 205.207 283.024 205.571 283.024 206.02C283.024 206.469 283.389 206.833 283.84 206.833H293.072C293.522 206.833 293.887 206.469 293.887 206.02C293.887 205.571 293.522 205.207 293.072 205.207Z" fill="white"/>
<path d="M285.235 201.402H283.749C283.299 201.402 282.934 201.766 282.934 202.215C282.934 202.664 283.299 203.028 283.749 203.028H285.235C285.685 203.028 286.05 202.664 286.05 202.215C286.05 201.766 285.685 201.402 285.235 201.402Z" fill="white"/>
<path d="M302.223 201.402H300.738C300.287 201.402 299.922 201.766 299.922 202.215C299.922 202.664 300.287 203.028 300.738 203.028H302.223C302.674 203.028 303.039 202.664 303.039 202.215C303.039 201.766 302.674 201.402 302.223 201.402Z" fill="white"/>
<path d="M307.037 201.402H305.551C305.101 201.402 304.736 201.766 304.736 202.215C304.736 202.664 305.101 203.028 305.551 203.028H307.037C307.487 203.028 307.852 202.664 307.852 202.215C307.852 201.766 307.487 201.402 307.037 201.402Z" fill="white"/>
<path d="M297.602 201.537H288.37C287.92 201.537 287.555 201.901 287.555 202.35C287.555 202.799 287.92 203.163 288.37 203.163H297.602C298.053 203.163 298.418 202.799 298.418 202.35C298.418 201.901 298.053 201.537 297.602 201.537Z" fill="white"/>
<path d="M263.746 255.416L256.773 244.427L278.661 227.033L287.695 217.055C288.869 215.758 290.363 214.792 292.029 214.252C293.695 213.711 295.474 213.617 297.188 213.976C298.902 214.336 300.492 215.138 301.797 216.303C303.103 217.467 304.079 218.952 304.629 220.61C305.443 223.067 305.268 225.744 304.141 228.075C303.013 230.406 301.021 232.209 298.585 233.103L284.299 238.35L263.746 255.416Z" fill="#FFB6B6"/>
<path d="M100.13 175.741V229.149H137.662V175.741C137.662 175.357 137.539 174.983 137.311 174.674C137.082 174.364 136.76 174.136 136.392 174.023C136.219 173.966 136.037 173.937 135.854 173.939H101.943C101.705 173.939 101.47 173.985 101.25 174.076C101.03 174.166 100.83 174.299 100.662 174.466C100.494 174.633 100.36 174.832 100.269 175.051C100.178 175.27 100.131 175.504 100.13 175.741V175.741ZM114.777 194.092C114.787 193.039 115.213 192.033 115.964 191.292C116.714 190.551 117.728 190.135 118.784 190.135C119.84 190.135 120.853 190.551 121.604 191.292C122.354 192.033 122.78 193.039 122.79 194.092V200.289C122.785 201.345 122.36 202.356 121.609 203.1C120.859 203.845 119.843 204.263 118.784 204.263C117.725 204.263 116.709 203.845 115.958 203.1C115.207 202.356 114.783 201.345 114.777 200.289V194.092Z" fill="#2F2E41"/>
<path d="M100.016 227.441V232.591C100.016 232.858 100.123 233.113 100.311 233.303C100.5 233.492 100.756 233.599 101.024 233.601H136.768C137.036 233.6 137.293 233.493 137.482 233.303C137.671 233.114 137.777 232.858 137.777 232.591V227.441H100.016Z" fill="#3F3D56"/>
<path d="M41.0885 95.2758V192.79C41.0895 194.033 41.5851 195.225 42.4665 196.103C43.348 196.982 44.5432 197.476 45.7897 197.477H190.743C191.99 197.476 193.185 196.982 194.067 196.103C194.948 195.225 195.444 194.033 195.445 192.79V95.2758C195.442 94.0342 194.945 92.8444 194.064 91.967C193.183 91.0895 191.989 90.5959 190.743 90.5944H45.7897C44.5443 90.5959 43.3502 91.0895 42.469 91.967C41.5879 92.8444 41.0915 94.0342 41.0885 95.2758Z" fill="#3F3D56"/>
<path d="M44.489 96.4891V191.587C44.4902 192.251 44.7552 192.888 45.2262 193.357C45.6971 193.827 46.3355 194.091 47.0015 194.092H189.537C190.203 194.091 190.841 193.827 191.312 193.357C191.783 192.888 192.048 192.251 192.049 191.587V96.4891C192.049 95.8243 191.785 95.1868 191.314 94.7162C190.843 94.2457 190.204 93.9806 189.537 93.9791H47.0015C46.3347 93.9806 45.6957 94.2457 45.2247 94.7162C44.7537 95.1868 44.4891 95.8244 44.489 96.4891Z" fill="white"/>
<path d="M70.9412 233.252C71.0862 233.434 71.2707 233.58 71.4805 233.68C71.6904 233.78 71.9204 233.831 72.153 233.83H156.952C157.184 233.83 157.413 233.778 157.622 233.679C157.832 233.579 158.016 233.434 158.162 233.255C158.308 233.075 158.412 232.865 158.467 232.641C158.522 232.416 158.525 232.182 158.478 231.956L157.161 225.722C157.107 225.468 156.989 225.232 156.819 225.034C156.65 224.837 156.433 224.685 156.19 224.592C156.013 224.523 155.825 224.488 155.636 224.488H73.4642C73.2747 224.488 73.0868 224.523 72.9105 224.592C72.6668 224.685 72.4503 224.837 72.2806 225.034C72.1109 225.232 71.9934 225.468 71.9389 225.722L70.6225 231.956C70.5757 232.182 70.58 232.415 70.6351 232.64C70.6902 232.864 70.7948 233.073 70.9412 233.252Z" fill="#2F2E41"/>
<path d="M184.911 107.079H51.5414C51.4028 107.076 51.2709 107.019 51.1739 106.92C51.077 106.822 51.0227 106.689 51.0227 106.551C51.0227 106.412 51.077 106.28 51.1739 106.181C51.2709 106.082 51.4028 106.025 51.5414 106.022H184.911C185.05 106.025 185.182 106.082 185.279 106.181C185.376 106.28 185.43 106.412 185.43 106.551C185.43 106.689 185.376 106.822 185.279 106.92C185.182 107.019 185.05 107.076 184.911 107.079V107.079Z" fill="#3F3D56"/>
<path d="M60.6201 103.322C62.3367 103.322 63.7283 101.904 63.7283 100.155C63.7283 98.4051 62.3367 96.9869 60.6201 96.9869C58.9034 96.9869 57.5118 98.4051 57.5118 100.155C57.5118 101.904 58.9034 103.322 60.6201 103.322Z" fill="#3F3D56"/>
<path d="M71.3576 103.322C73.0743 103.322 74.4659 101.904 74.4659 100.155C74.4659 98.4051 73.0743 96.9869 71.3576 96.9869C69.641 96.9869 68.2494 98.4051 68.2494 100.155C68.2494 101.904 69.641 103.322 71.3576 103.322Z" fill="#3F3D56"/>
<path d="M82.0952 103.322C83.8118 103.322 85.2034 101.904 85.2034 100.155C85.2034 98.4051 83.8118 96.9869 82.0952 96.9869C80.3785 96.9869 78.9869 98.4051 78.9869 100.155C78.9869 101.904 80.3785 103.322 82.0952 103.322Z" fill="#3F3D56"/>
<path d="M178.445 97.7702H170.819C170.668 97.7737 170.525 97.8359 170.419 97.9434C170.314 98.0509 170.255 98.1953 170.255 98.3456C170.255 98.496 170.314 98.6403 170.419 98.7479C170.525 98.8554 170.668 98.9175 170.819 98.9211H178.445C178.597 98.9189 178.742 98.8574 178.848 98.7497C178.955 98.642 179.014 98.4968 179.014 98.3456C179.014 98.1944 178.955 98.0493 178.848 97.9416C178.742 97.8339 178.597 97.7723 178.445 97.7702Z" fill="#3F3D56"/>
<path d="M178.445 99.9313H170.819C170.668 99.9346 170.524 99.9967 170.419 100.104C170.313 100.212 170.254 100.356 170.254 100.507C170.254 100.657 170.313 100.802 170.419 100.909C170.524 101.017 170.668 101.079 170.819 101.082H178.445C178.597 101.08 178.742 101.019 178.849 100.911C178.956 100.803 179.016 100.658 179.016 100.507C179.016 100.355 178.956 100.21 178.849 100.102C178.742 99.9945 178.597 99.9331 178.445 99.9313V99.9313Z" fill="#3F3D56"/>
<path d="M178.445 102.092H170.819C170.668 102.096 170.525 102.158 170.419 102.266C170.314 102.373 170.255 102.517 170.255 102.668C170.255 102.818 170.314 102.962 170.419 103.07C170.525 103.178 170.668 103.24 170.819 103.243H178.445C178.597 103.241 178.742 103.179 178.848 103.072C178.955 102.964 179.014 102.819 179.014 102.668C179.014 102.517 178.955 102.371 178.848 102.264C178.742 102.156 178.597 102.094 178.445 102.092V102.092Z" fill="#3F3D56"/>
<path d="M362.304 229.701C362.534 230.369 362.971 230.947 363.551 231.352C364.131 231.758 364.825 231.969 365.534 231.956L379.372 231.601C380.085 231.587 380.775 231.344 381.338 230.907C381.901 230.47 382.308 229.862 382.496 229.176L384.454 208.301C385.149 208.615 385.905 208.77 386.668 208.754C387.33 208.738 387.983 208.591 388.589 208.323C389.195 208.055 389.741 207.671 390.198 207.192C390.655 206.713 391.013 206.15 391.251 205.533C391.489 204.916 391.603 204.259 391.586 203.599C391.57 202.938 391.423 202.287 391.154 201.684C390.885 201.08 390.499 200.535 390.019 200.079C389.539 199.624 388.973 199.267 388.355 199.03C387.736 198.793 387.077 198.679 386.415 198.695C386.11 198.694 385.806 198.726 385.508 198.79C385.184 198.44 384.79 198.162 384.351 197.973C383.913 197.785 383.439 197.69 382.962 197.694L361.675 198.242C361.499 198.249 361.323 198.271 361.15 198.307C360.684 198.394 360.241 198.58 359.852 198.851C359.463 199.123 359.137 199.474 358.896 199.882C358.655 200.29 358.504 200.744 358.454 201.215C358.403 201.686 358.455 202.162 358.605 202.611L362.304 229.701ZM384.856 206.884L386.249 201.909C386.408 201.334 386.411 200.728 386.26 200.152C386.327 200.152 386.387 200.12 386.455 200.12C387.41 200.1 388.334 200.459 389.025 201.117C389.715 201.776 390.116 202.681 390.138 203.633C390.16 204.586 389.803 205.508 389.144 206.198C388.485 206.888 387.579 207.29 386.624 207.315C386.006 207.334 385.395 207.185 384.856 206.884Z" fill="#2F2E41"/>
<path d="M361.15 198.307C361.604 200.892 366.703 202.71 372.833 202.394C378.471 202.135 383.081 200.161 383.925 197.822C383.613 197.73 383.288 197.687 382.962 197.694L361.675 198.242C361.499 198.249 361.323 198.271 361.15 198.307V198.307Z" fill="#3F3D56"/>
<path d="M373.957 218.23C373.985 218.223 374.011 218.211 374.036 218.195L377.041 216.234C377.077 216.211 377.107 216.178 377.128 216.14C377.148 216.102 377.159 216.06 377.159 216.017C377.159 215.973 377.148 215.931 377.128 215.893C377.107 215.855 377.077 215.823 377.041 215.799L373.917 213.759C373.889 213.74 373.857 213.727 373.823 213.721C373.789 213.714 373.754 213.715 373.721 213.721C373.687 213.728 373.655 213.742 373.627 213.761C373.598 213.78 373.574 213.805 373.555 213.834C373.536 213.862 373.523 213.894 373.517 213.928C373.51 213.962 373.511 213.996 373.518 214.03C373.525 214.063 373.539 214.095 373.558 214.124C373.578 214.152 373.602 214.176 373.631 214.195L376.421 216.016L373.75 217.76C373.698 217.793 373.66 217.844 373.642 217.903C373.625 217.962 373.629 218.026 373.654 218.082C373.678 218.139 373.722 218.184 373.778 218.211C373.834 218.238 373.897 218.245 373.957 218.23H373.957Z" fill="#8405D1"/>
<path d="M369.21 218.448C369.261 218.435 369.306 218.408 369.341 218.369C369.376 218.331 369.398 218.283 369.405 218.231C369.412 218.18 369.404 218.127 369.381 218.081C369.358 218.034 369.321 217.996 369.276 217.97L366.506 216.387L369.183 214.404C369.211 214.384 369.234 214.358 369.252 214.329C369.269 214.299 369.281 214.267 369.286 214.233C369.291 214.199 369.289 214.165 369.281 214.132C369.273 214.099 369.258 214.067 369.237 214.04C369.217 214.013 369.191 213.989 369.162 213.972C369.132 213.954 369.1 213.943 369.066 213.938C369.032 213.933 368.997 213.935 368.964 213.943C368.931 213.951 368.9 213.966 368.872 213.986L365.874 216.206C365.84 216.232 365.812 216.266 365.793 216.305C365.775 216.344 365.767 216.387 365.769 216.43C365.772 216.474 365.785 216.515 365.808 216.552C365.831 216.589 365.863 216.619 365.9 216.641L369.016 218.422C369.075 218.455 369.145 218.465 369.21 218.448V218.448Z" fill="#8405D1"/>
<path d="M373.658 219.948C373.683 219.942 373.707 219.932 373.73 219.918C373.759 219.9 373.784 219.877 373.805 219.85C373.825 219.822 373.84 219.791 373.848 219.757C373.856 219.724 373.857 219.69 373.852 219.656C373.847 219.622 373.835 219.59 373.817 219.56L369.557 212.578C369.521 212.519 369.463 212.477 369.395 212.461C369.328 212.445 369.257 212.456 369.198 212.492C369.139 212.527 369.097 212.585 369.08 212.652C369.064 212.719 369.075 212.79 369.111 212.849L373.371 219.831C373.4 219.879 373.443 219.916 373.495 219.937C373.547 219.958 373.604 219.962 373.658 219.948Z" fill="#8405D1"/>
<path d="M134.162 135.824H111.078C110.137 135.824 109.373 136.585 109.373 137.524V139.772C109.373 140.711 110.137 141.472 111.078 141.472H134.162C135.103 141.472 135.867 140.711 135.867 139.772V137.524C135.867 136.585 135.103 135.824 134.162 135.824Z" fill="#8405D1"/>
<path d="M147.617 147.12H97.6232C96.6815 147.12 95.9181 147.881 95.9181 148.82V151.068C95.9181 152.007 96.6815 152.768 97.6232 152.768H147.617C148.558 152.768 149.322 152.007 149.322 151.068V148.82C149.322 147.881 148.558 147.12 147.617 147.12Z" fill="#E6E6E6"/>
<path d="M147.617 158.416H97.6232C96.6815 158.416 95.9181 159.177 95.9181 160.115V162.364C95.9181 163.302 96.6815 164.063 97.6232 164.063H147.617C148.558 164.063 149.322 163.302 149.322 162.364V160.115C149.322 159.177 148.558 158.416 147.617 158.416Z" fill="#E6E6E6"/>
<path d="M151.855 196.24L151.968 196.597L151.974 196.609L155.382 206.939L159.303 218.844L166.68 241.216L166.752 244.691V244.703L167.3 272.659L165.781 276.449L167.491 282.662C167.491 282.662 166.704 273.27 162.485 278.664C160.096 281.729 157.301 284.866 155.007 287.806C158.35 289.155 161.746 290.374 165.197 291.465C165.942 291.703 166.692 291.929 167.443 292.155C167.604 292.202 167.765 292.25 167.926 292.297C179.363 295.669 191.186 297.564 203.107 297.935C203.727 297.953 204.334 297.964 204.924 297.976C205.133 297.982 205.336 297.988 205.538 297.988C206.206 297.994 206.867 298 207.534 298C208.881 298 210.222 297.98 211.557 297.941C221.436 297.663 231.258 296.339 240.856 293.99C240.791 290.04 240.612 285.424 240.356 280.493C240.237 278.076 237.561 275.456 237.4 272.925C237.287 271.024 239.688 269.236 239.563 267.306C238.753 255.419 237.74 259.982 236.989 251.564C236.912 250.738 236.84 249.948 236.774 249.194C236.292 243.788 235.958 240.408 235.958 240.408L239.164 220.264L244.199 188.637L243.812 188.001L243.377 187.787L216.818 174.682L215.376 170.999C214.956 169.938 214.227 169.027 213.283 168.382C212.339 167.737 211.223 167.389 210.079 167.382L192.584 167.31C191.676 167.306 190.78 167.518 189.97 167.928C189.161 168.338 188.461 168.935 187.93 169.669L183.192 176.209L151.855 196.24Z" fill="#3F3D56"/>
<path d="M170.714 236.238L166.752 244.691L164.047 250.465L159.393 274.756L157.063 277.221L155.066 268.494L134.173 273.118C133.488 269.322 133.99 273.247 133.567 269.083C133.686 268.964 133.811 268.845 133.936 268.726C134.27 268.417 134.55 268.126 134.544 267.847C134.306 253.483 135.021 229.038 140.992 214.228C141.927 211.81 143.16 209.517 144.662 207.403C144.781 207.242 144.895 207.082 145.008 206.921C147.761 203.078 149.501 199.294 151.968 196.603V196.597C151.983 196.584 151.997 196.571 152.01 196.555C152.019 196.551 152.027 196.545 152.033 196.537L168.98 187.579L169.707 207.943L170.226 222.58L170.714 236.238Z" fill="#3F3D56"/>
<path d="M231.822 238.639L236.772 249.197L238.5 252.874L243.152 277.162L245.475 279.621L247.475 270.896L248.416 270.704L265.37 267.203L270.312 282.85C271.426 280.999 271.865 278.823 271.554 276.687C271.244 274.552 270.203 272.589 268.609 271.13C268.271 270.826 267.99 270.529 267.998 270.249C268.279 253.354 267.243 222.505 257.881 209.808C254.908 205.779 253.124 201.765 250.529 198.962C250.521 198.954 250.521 198.946 250.513 198.946L244.197 188.636L243.811 188.003L243.377 187.787L231.822 238.639Z" fill="#3F3D56"/>
<path d="M201.836 162.347C214.691 162.347 225.112 151.958 225.112 139.143C225.112 126.328 214.691 115.94 201.836 115.94C188.982 115.94 178.561 126.328 178.561 139.143C178.561 151.958 188.982 162.347 201.836 162.347Z" fill="#FFB6B6"/>
<path d="M233.296 122.936C233.115 122.744 232.898 122.59 232.657 122.483C232.415 122.377 232.155 122.32 231.891 122.316L232.241 121.347C232.355 121.042 232.386 120.712 232.33 120.392C232.274 120.071 232.134 119.77 231.923 119.521C231.713 119.272 231.44 119.084 231.132 118.974C230.824 118.865 230.493 118.839 230.172 118.9L228.898 119.145L229.018 118.296C229.064 117.98 229.027 117.657 228.91 117.36C228.793 117.062 228.6 116.8 228.351 116.6C228.101 116.399 227.804 116.266 227.488 116.215C227.172 116.164 226.847 116.195 226.547 116.307C226.274 116.414 225.98 116.459 225.687 116.438C225.394 116.417 225.11 116.331 224.855 116.187C224.598 116.047 224.376 115.852 224.202 115.618C224.029 115.383 223.91 115.113 223.852 114.828L223.408 112.693L223.361 112.578C221.198 108.985 217.04 106.371 211.952 105.413C207.423 104.553 202.78 104.991 198.303 105.402C196.527 105.569 194.521 105.756 192.85 106.777C191.429 107.652 190.228 109.402 190.473 111.167C186.059 109.818 181.327 112.51 178.981 115.906C176.202 119.947 175.748 125.008 175.675 128.966C175.476 138.329 177.414 145.989 181.421 151.738C181.713 152.155 181.786 153.024 182.366 153.316L182.246 153.123C182.894 153.446 183.552 153.967 183.306 154.524C182.601 156.128 187.287 159.674 190.588 160.846C196.611 162.986 204.618 162.804 210.249 162.033L210.448 160.705C212.48 160.429 213.911 159.903 214.313 159.081C215.024 158.476 215.63 157.935 216.157 157.435L216.163 157.43C216.173 157.419 216.194 157.404 216.204 157.393C218.748 154.961 219.338 153.576 219.605 151.467C219.861 149.4 219.406 147.301 218.941 145.411C228.73 146.921 215.086 135.017 224.207 132.715C224.311 132.683 224.418 132.657 224.525 132.637C224.792 132.575 225.058 132.512 225.314 132.439C226.548 132.105 227.729 131.602 228.824 130.945C231.374 129.398 232.215 127.346 233.531 125.034C233.721 124.705 233.8 124.324 233.758 123.947C233.716 123.569 233.554 123.215 233.296 122.936V122.936Z" fill="#2F2E41"/>
<path d="M284.157 240.291C284.152 241.202 284.142 242.478 284.1 244.056C284.095 244.274 284.09 244.498 284.084 244.727C284.016 247.628 283.949 250.06 283.839 252.762C283.834 252.95 283.828 253.132 283.818 253.32C283.672 257.09 283.442 261.48 283.045 268.432C282.308 281.273 281.023 270.197 279.733 274.701C279.67 274.925 279.603 275.191 279.54 275.503C279.344 276.637 279.015 277.744 278.558 278.8C277.874 279.206 277.168 279.596 276.474 279.987C274.494 281.086 272.483 282.143 270.456 283.148C269.317 283.71 268.173 284.262 267.024 284.793C266.841 284.877 266.664 284.96 266.486 285.038C260.601 287.752 254.536 290.059 248.334 291.943C247.122 292.308 245.916 292.662 244.694 292.99C243.419 293.344 242.144 293.677 240.854 293.99C231.256 296.339 221.435 297.664 211.555 297.942C210.223 297.984 208.881 298 207.533 298C206.865 298 206.206 297.994 205.538 297.989C205.334 297.989 205.13 297.984 204.927 297.979C204.336 297.963 203.725 297.953 203.109 297.937C191.188 297.566 179.364 295.671 167.928 292.297L167.442 292.157C166.69 291.928 165.943 291.704 165.196 291.464C161.749 290.376 158.352 289.157 155.005 287.809C152.451 286.783 149.926 285.682 147.431 284.507C147.408 284.501 147.387 284.49 147.368 284.476C146.846 284.236 146.318 283.986 145.796 283.731C145.728 283.695 145.655 283.658 145.582 283.622C143.633 282.674 141.706 281.681 139.799 280.643C138.196 276.972 135.939 276.269 134.539 273.04C134.132 272.081 133.837 271.078 133.662 270.051C133.662 270.041 133.656 270.03 133.656 270.015C133.803 271.952 133.035 266.578 133.651 269.994C133.646 269.931 133.641 269.864 133.635 269.786C133.62 269.598 133.599 269.369 133.568 269.083C131.776 251.643 131.891 231.698 131.112 215.264C131.06 214.201 131.006 213.184 130.951 212.212C130.935 211.889 130.914 211.572 130.893 211.259C130.93 211.165 130.971 211.066 131.018 210.973C131.028 210.946 131.041 210.92 131.055 210.895C131.07 210.862 131.088 210.831 131.107 210.801C131.118 210.785 131.133 210.764 131.144 210.749C131.151 210.731 131.16 210.714 131.17 210.697C131.217 210.624 131.269 210.546 131.327 210.473C131.353 210.442 131.374 210.415 131.4 210.389C131.418 210.363 131.439 210.338 131.462 210.317C131.478 210.292 131.498 210.269 131.52 210.249C131.541 210.228 131.562 210.202 131.588 210.176C131.599 210.16 131.613 210.145 131.63 210.134C131.671 210.087 131.716 210.043 131.765 210.004C131.952 209.833 132.151 209.677 132.361 209.535C132.434 209.489 132.512 209.442 132.585 209.39C133.112 209.076 133.666 208.811 134.241 208.598C134.44 208.525 134.638 208.458 134.853 208.385C134.931 208.364 135.004 208.338 135.082 208.312C135.197 208.275 135.312 208.239 135.432 208.213C136.028 208.036 136.67 207.885 137.365 207.744C137.449 207.728 137.537 207.713 137.626 207.692C137.752 207.666 137.882 207.645 138.013 207.624C138.19 207.593 138.373 207.562 138.556 207.531C140.107 207.286 141.868 207.104 143.811 206.984C143.994 206.973 144.177 206.963 144.359 206.953C144.574 206.942 144.788 206.932 145.007 206.921C145.19 206.911 145.378 206.906 145.566 206.901C145.749 206.89 145.937 206.885 146.13 206.88C146.658 206.864 147.201 206.848 147.755 206.838C149.332 206.807 150.993 206.817 152.738 206.854C153.548 206.874 154.373 206.895 155.219 206.932C155.277 206.932 155.329 206.937 155.381 206.937C156.118 206.963 156.859 206.994 157.622 207.036C158.155 207.062 158.693 207.088 159.231 207.119C159.738 207.15 160.249 207.182 160.767 207.218C161.169 207.239 161.571 207.27 161.978 207.296C162.323 207.322 162.668 207.348 163.013 207.369L163.483 207.4C163.739 207.421 163.995 207.437 164.256 207.463C164.831 207.51 165.405 207.557 165.99 207.604C166.57 207.656 167.16 207.708 167.75 207.76C168.341 207.812 168.936 207.869 169.532 207.926C169.594 207.932 169.652 207.937 169.709 207.942C170.253 207.999 170.796 208.051 171.344 208.109C171.47 208.119 171.6 208.129 171.726 208.145C172.249 208.197 172.782 208.259 173.309 208.315C173.471 208.332 173.632 208.349 173.795 208.367C174.208 208.412 174.616 208.45 175.032 208.499C175.581 208.562 176.14 208.619 176.683 208.692C177.106 208.739 177.529 208.786 177.952 208.838C178.615 208.916 179.289 208.999 179.963 209.088C180.219 209.119 180.475 209.15 180.731 209.187C182.653 209.426 184.596 209.692 186.571 209.968C189.564 210.389 192.604 210.848 195.665 211.342C198.731 211.837 201.815 212.36 204.916 212.91C205.7 213.051 206.483 213.191 207.272 213.337C207.627 213.405 207.982 213.472 208.337 213.54C208.943 213.649 209.549 213.764 210.155 213.878C210.761 213.993 211.367 214.108 211.973 214.227C212.694 214.368 213.42 214.509 214.141 214.649C218.889 215.586 223.611 216.586 228.218 217.633C228.976 217.805 229.733 217.982 230.485 218.154C231.99 218.503 233.48 218.857 234.957 219.216C235.364 219.31 235.766 219.409 236.169 219.508C237.172 219.758 238.174 220.008 239.162 220.263L239.334 220.31C240.06 220.487 240.771 220.669 241.481 220.856C243.158 221.294 244.807 221.737 246.428 222.184C247.504 222.481 248.568 222.781 249.619 223.085C251.192 223.538 252.732 223.997 254.232 224.46C254.603 224.575 254.973 224.689 255.339 224.798C256.436 225.137 257.517 225.481 258.567 225.824C259.403 226.095 260.218 226.371 261.022 226.647C261.827 226.923 262.615 227.199 263.389 227.475C263.885 227.652 264.376 227.84 264.867 228.017C265.572 228.277 266.267 228.537 266.946 228.798C267.155 228.876 267.358 228.959 267.562 229.037C267.693 229.095 267.818 229.141 267.943 229.194C268.189 229.292 268.44 229.386 268.68 229.485C268.926 229.579 269.166 229.678 269.406 229.782C269.641 229.876 269.881 229.975 270.111 230.074C270.346 230.167 270.576 230.266 270.806 230.37C270.999 230.449 271.187 230.532 271.37 230.615C271.741 230.777 272.112 230.938 272.472 231.105C272.65 231.188 272.828 231.266 273.005 231.349L273.413 231.537C273.47 231.568 273.527 231.594 273.585 231.62C273.716 231.683 273.851 231.75 273.982 231.813C274.285 231.954 274.583 232.105 274.875 232.245C275.267 232.443 275.648 232.641 276.014 232.834C276.385 233.031 276.745 233.229 277.09 233.422C277.147 233.453 277.2 233.485 277.257 233.516C277.335 233.557 277.414 233.604 277.492 233.646C277.759 233.797 278.015 233.953 278.27 234.104C278.772 234.411 279.247 234.713 279.691 235.015C279.791 235.083 279.885 235.151 279.984 235.213C280.313 235.448 280.626 235.677 280.919 235.911C280.919 235.916 280.919 235.916 280.924 235.916C281.023 235.989 281.117 236.067 281.211 236.14C281.29 236.213 281.373 236.276 281.452 236.349C281.723 236.583 281.974 236.807 282.204 237.036C282.281 237.107 282.354 237.181 282.423 237.26C282.454 237.285 282.482 237.313 282.507 237.343C282.611 237.447 282.705 237.551 282.794 237.656C282.808 237.67 282.82 237.686 282.831 237.702C282.956 237.848 283.071 237.994 283.181 238.14C283.233 238.213 283.29 238.286 283.337 238.359C283.4 238.447 283.463 238.541 283.515 238.629C283.562 238.702 283.604 238.78 283.646 238.853C283.756 239.041 283.851 239.238 283.928 239.442C283.986 239.58 284.033 239.723 284.069 239.869C284.108 240.007 284.138 240.148 284.157 240.291V240.291Z" fill="#2F2E41"/>
<path opacity="0.2" d="M284.158 240.291C284.152 241.202 284.142 242.478 284.1 244.056C284.095 244.274 284.084 244.498 284.079 244.727C284.027 246.941 283.949 249.674 283.839 252.762C283.834 252.95 283.829 253.132 283.818 253.32C283.672 257.09 283.442 261.48 283.045 268.432C282.308 281.273 281.023 270.197 279.733 274.701C276.15 272.504 272.222 270.202 268.022 267.838C267.265 267.411 266.5 266.982 265.729 266.552C257.329 261.881 247.948 256.986 238.154 252.138C237.767 251.945 237.375 251.752 236.989 251.565C214.554 240.509 190.066 229.756 170.227 222.58C166.398 221.195 162.741 219.945 159.304 218.846C152.064 216.539 145.806 214.925 140.99 214.227C135.976 213.498 132.512 213.759 131.113 215.264C131.06 214.201 131.006 213.184 130.951 212.212C130.93 211.889 130.909 211.572 130.888 211.259C130.92 211.173 130.962 211.092 131.003 211.009C131.008 210.997 131.013 210.985 131.019 210.973C131.029 210.946 131.041 210.92 131.055 210.895C131.071 210.862 131.088 210.831 131.107 210.801C131.124 210.764 131.145 210.729 131.17 210.697C131.217 210.624 131.269 210.546 131.327 210.473C131.369 210.418 131.414 210.366 131.463 210.317C131.479 210.291 131.498 210.269 131.52 210.249C131.541 210.228 131.562 210.202 131.588 210.176C131.599 210.16 131.613 210.145 131.63 210.134C131.671 210.087 131.716 210.043 131.766 210.004C131.952 209.833 132.151 209.676 132.361 209.535C132.434 209.489 132.512 209.442 132.586 209.39C133.112 209.076 133.666 208.811 134.241 208.598C134.44 208.525 134.638 208.457 134.853 208.385C134.931 208.364 135.004 208.338 135.082 208.312C135.197 208.275 135.312 208.239 135.432 208.213C136.028 208.036 136.67 207.885 137.365 207.744C137.574 207.702 137.793 207.661 138.013 207.624C138.19 207.593 138.373 207.562 138.556 207.531C140.108 207.286 141.868 207.104 143.811 206.984C143.994 206.973 144.177 206.963 144.36 206.953C144.574 206.942 144.788 206.932 145.007 206.921C145.19 206.911 145.378 206.906 145.566 206.9C145.749 206.89 145.937 206.885 146.13 206.88C146.658 206.864 147.201 206.848 147.755 206.838C149.332 206.812 150.993 206.822 152.738 206.859C153.548 206.874 154.373 206.9 155.219 206.937C155.272 206.937 155.329 206.942 155.381 206.942C156.118 206.963 156.865 206.999 157.622 207.036C158.155 207.062 158.693 207.088 159.231 207.119C159.738 207.15 160.25 207.182 160.767 207.218C161.169 207.239 161.571 207.27 161.979 207.296C162.323 207.322 162.668 207.348 163.013 207.369C163.425 207.4 163.838 207.432 164.256 207.463C164.831 207.51 165.405 207.557 165.99 207.603C166.57 207.656 167.16 207.708 167.751 207.76C168.341 207.812 168.936 207.869 169.532 207.926C169.594 207.932 169.652 207.937 169.709 207.942C170.253 207.999 170.796 208.051 171.344 208.109C174.385 208.416 177.513 208.775 180.731 209.187C182.653 209.431 184.6 209.693 186.571 209.973C189.564 210.395 192.604 210.853 195.665 211.342C198.732 211.837 201.815 212.36 204.916 212.91C205.7 213.05 206.483 213.191 207.272 213.337C208.233 213.514 209.194 213.694 210.155 213.878C210.761 213.993 211.367 214.108 211.973 214.227C212.694 214.368 213.42 214.509 214.141 214.649C218.889 215.586 223.611 216.586 228.218 217.633C228.976 217.805 229.733 217.982 230.486 218.154C231.99 218.503 233.48 218.857 234.957 219.216C235.364 219.315 235.767 219.414 236.169 219.513C237.177 219.763 238.175 220.013 239.162 220.263V220.268C239.219 220.278 239.277 220.294 239.334 220.31C240.055 220.492 240.771 220.674 241.481 220.862C243.158 221.299 244.807 221.74 246.428 222.184C247.504 222.486 248.569 222.783 249.619 223.085C251.192 223.543 252.733 224.002 254.232 224.46C254.603 224.575 254.974 224.689 255.339 224.798C256.436 225.142 257.512 225.484 258.567 225.824C259.403 226.095 260.218 226.371 261.022 226.647C261.827 226.923 262.616 227.199 263.389 227.475C263.89 227.652 264.381 227.834 264.867 228.011C265.577 228.272 266.267 228.532 266.946 228.798C267.155 228.876 267.359 228.959 267.562 229.037C267.944 229.183 268.315 229.334 268.68 229.485C268.926 229.579 269.166 229.678 269.406 229.782C269.641 229.876 269.882 229.975 270.111 230.074C270.346 230.167 270.576 230.266 270.806 230.37C270.999 230.449 271.187 230.532 271.37 230.615C271.741 230.777 272.112 230.938 272.472 231.105C272.65 231.188 272.828 231.266 273.005 231.349L273.413 231.537C273.47 231.568 273.528 231.594 273.585 231.62C274.029 231.828 274.457 232.037 274.875 232.245C275.267 232.443 275.648 232.641 276.014 232.834C276.448 233.063 276.86 233.287 277.257 233.516C277.336 233.557 277.414 233.604 277.492 233.646C277.759 233.797 278.015 233.953 278.271 234.104C278.772 234.411 279.247 234.713 279.691 235.015C280.13 235.317 280.538 235.614 280.919 235.911C280.919 235.916 280.919 235.916 280.924 235.916C281.107 236.062 281.285 236.208 281.452 236.349C281.723 236.583 281.974 236.807 282.204 237.036C282.281 237.107 282.354 237.181 282.423 237.26C282.454 237.285 282.482 237.313 282.507 237.343C282.617 237.463 282.726 237.583 282.831 237.702C282.956 237.848 283.071 237.994 283.181 238.14C283.233 238.213 283.29 238.286 283.337 238.359C283.4 238.447 283.463 238.541 283.515 238.629C283.562 238.702 283.604 238.78 283.646 238.853C283.757 239.041 283.851 239.238 283.928 239.442C283.985 239.581 284.032 239.723 284.069 239.869C284.108 240.007 284.138 240.148 284.158 240.291V240.291Z" fill="black"/>
</g>
<defs>
<clipPath id="clip0_54_227">
<rect width="411" height="298" fill="white"/>
</clipPath>
</defs>
</svg>
