<svg width="144" height="37" viewBox="0 0 144 37" fill="none" xmlns="http://www.w3.org/2000/svg">
<path d="M14.216 7.24801H12.296C12.264 9.23202 12.232 11.216 12.2 13.2C12.2 15.152 12.2 17.024 12.2 18.816H14.024C15.624 18.816 16.872 18.544 17.768 18C18.664 17.456 19.304 16.736 19.688 15.84C20.072 14.944 20.264 13.984 20.264 12.96C20.264 9.15201 18.248 7.24801 14.216 7.24801ZM0.583984 7.05601V4.46402H16.184C19.96 4.46402 22.856 5.16802 24.872 6.57601C26.92 7.98402 27.944 9.93602 27.944 12.432C27.944 13.488 27.672 14.544 27.128 15.6C26.584 16.624 25.688 17.536 24.44 18.336C23.192 19.104 21.496 19.664 19.352 20.016C21.176 20.24 22.6 20.688 23.624 21.36C24.648 22 25.416 22.848 25.928 23.904C26.44 24.928 26.808 26.192 27.032 27.696L27.944 33.024L31.592 33.408V36C30.824 36.16 30.184 36.288 29.672 36.384C29.16 36.512 28.648 36.592 28.136 36.624C27.656 36.656 27.048 36.672 26.312 36.672C24.264 36.672 22.648 36.32 21.464 35.616C20.312 34.912 19.608 33.632 19.352 31.776L18.488 26.208C18.264 24.608 17.8 23.424 17.096 22.656C16.424 21.888 15.368 21.504 13.928 21.504H12.2C12.2 23.552 12.2 25.52 12.2 27.408C12.232 29.296 12.264 31.168 12.296 33.024L16.04 33.408V36H0.583984V33.408L4.18398 33.024C4.24798 31.072 4.27998 29.104 4.27998 27.12C4.27998 25.136 4.27998 23.136 4.27998 21.12V19.344C4.27998 17.36 4.27998 15.376 4.27998 13.392C4.27998 11.376 4.24798 9.39201 4.18398 7.44001L0.583984 7.05601Z" fill="#141414"/>
<path d="M51.3575 36.672C48.5735 36.672 46.8135 35.52 46.0775 33.216C45.0535 34.304 44.0615 35.168 43.1015 35.808C42.1735 36.416 40.8775 36.72 39.2135 36.72C37.3575 36.72 35.8375 36.192 34.6535 35.136C33.5015 34.08 32.9255 32.56 32.9255 30.576C32.9255 29.424 33.1815 28.384 33.6935 27.456C34.2055 26.528 35.1335 25.664 36.4775 24.864C37.8215 24.064 39.7255 23.312 42.1895 22.608C42.6695 22.448 43.2295 22.288 43.8695 22.128C44.5095 21.968 45.1655 21.808 45.8375 21.648V20.064C45.8375 17.92 45.5655 16.464 45.0215 15.696C44.5095 14.928 43.4855 14.544 41.9495 14.544C41.7255 14.544 41.5175 14.544 41.3255 14.544C41.1335 14.544 40.9095 14.56 40.6535 14.592L40.4135 16.704C40.3815 18.272 40.0135 19.408 39.3095 20.112C38.6375 20.816 37.8375 21.168 36.9095 21.168C35.1495 21.168 34.0775 20.368 33.6935 18.768C33.8215 16.784 34.8295 15.168 36.7175 13.92C38.6055 12.672 41.2775 12.048 44.7335 12.048C47.8055 12.048 49.9975 12.752 51.3095 14.16C52.6535 15.568 53.3255 17.888 53.3255 21.12V31.872C53.3255 32.8 53.6775 33.264 54.3815 33.264C54.6375 33.264 54.8775 33.2 55.1015 33.072C55.3255 32.912 55.5655 32.624 55.8215 32.208L57.1175 33.072C56.5415 34.352 55.7895 35.28 54.8615 35.856C53.9655 36.4 52.7975 36.672 51.3575 36.672ZM40.0295 29.328C40.0295 30.512 40.3015 31.392 40.8455 31.968C41.4215 32.544 42.1095 32.832 42.9095 32.832C43.2615 32.832 43.6295 32.752 44.0135 32.592C44.3975 32.432 45.0055 32.064 45.8375 31.488V23.712C45.4215 23.84 45.0055 23.984 44.5895 24.144C44.2055 24.272 43.8695 24.4 43.5815 24.528C42.4935 24.976 41.6295 25.616 40.9895 26.448C40.3495 27.248 40.0295 28.208 40.0295 29.328Z" fill="#141414"/>
<path d="M71.936 14.928V12.816H81.008V14.928L78.224 15.456L70.304 36.096H66.656L58.016 15.408L55.664 14.928V12.816H69.296V14.928L66.272 15.552L70.784 27.84L74.96 15.504L71.936 14.928Z" fill="#141414"/>
<path d="M82.7525 36V33.744L85.3445 33.168C85.3765 32.016 85.3925 30.768 85.3925 29.424C85.3925 28.08 85.3925 26.912 85.3925 25.92V23.616C85.3925 22.304 85.3765 21.216 85.3445 20.352C85.3445 19.456 85.3125 18.528 85.2485 17.568L82.2725 17.136V15.264L92.3525 12.048L93.1685 12.576L93.0245 19.536V25.92C93.0245 26.912 93.0245 28.096 93.0245 29.472C93.0245 30.816 93.0405 32.08 93.0725 33.264L95.4725 33.744V36H82.7525ZM89.1365 8.49602C88.0165 8.49602 87.0565 8.14402 86.2565 7.44001C85.4565 6.70401 85.0565 5.79202 85.0565 4.70402C85.0565 3.58401 85.4565 2.67201 86.2565 1.96801C87.0565 1.23201 88.0165 0.864014 89.1365 0.864014C90.2565 0.864014 91.2165 1.23201 92.0165 1.96801C92.8165 2.67201 93.2165 3.58401 93.2165 4.70402C93.2165 5.79202 92.8165 6.70401 92.0165 7.44001C91.2165 8.14402 90.2565 8.49602 89.1365 8.49602Z" fill="#141414"/>
<path d="M109.748 14.544C108.852 14.544 108.02 15.104 107.252 16.224C106.516 17.312 106.1 19.328 106.004 22.272H110.084C111.236 22.272 112.004 22.048 112.388 21.6C112.804 21.12 113.012 20.336 113.012 19.248C113.012 17.648 112.692 16.464 112.052 15.696C111.412 14.928 110.644 14.544 109.748 14.544ZM109.844 36.72C107.508 36.72 105.444 36.24 103.652 35.28C101.86 34.288 100.452 32.88 99.428 31.056C98.404 29.2 97.892 26.992 97.892 24.432C97.892 21.744 98.484 19.488 99.668 17.664C100.884 15.808 102.436 14.416 104.324 13.488C106.212 12.528 108.18 12.048 110.228 12.048C112.34 12.048 114.132 12.496 115.604 13.392C117.108 14.288 118.244 15.504 119.012 17.04C119.78 18.544 120.164 20.272 120.164 22.224C120.164 23.152 120.068 24 119.876 24.768H106.004C106.164 27.296 106.852 29.168 108.068 30.384C109.316 31.568 110.772 32.16 112.436 32.16C113.748 32.16 114.868 31.92 115.796 31.44C116.724 30.928 117.54 30.304 118.244 29.568L119.924 31.104C118.932 32.992 117.588 34.4 115.892 35.328C114.196 36.256 112.18 36.72 109.844 36.72Z" fill="#141414"/>
<path d="M122.827 36V33.744L125.467 33.216C125.499 32.032 125.515 30.768 125.515 29.424C125.515 28.08 125.515 26.912 125.515 25.92V23.088C125.515 22.192 125.499 21.456 125.467 20.88C125.467 20.304 125.451 19.776 125.419 19.296C125.419 18.784 125.403 18.208 125.371 17.568L122.443 17.136V15.264L131.899 12.048L132.763 12.576L133.195 18.24C133.867 16.192 134.811 14.656 136.027 13.632C137.243 12.576 138.443 12.048 139.627 12.048C140.683 12.048 141.595 12.352 142.363 12.96C143.131 13.536 143.611 14.416 143.803 15.6C143.771 16.848 143.435 17.824 142.795 18.528C142.155 19.2 141.355 19.536 140.395 19.536C139.051 19.536 137.819 18.784 136.699 17.28L136.411 16.896C135.707 17.568 135.051 18.416 134.443 19.44C133.867 20.464 133.451 21.536 133.195 22.656V25.92C133.195 26.912 133.195 28.048 133.195 29.328C133.195 30.608 133.211 31.808 133.243 32.928L137.035 33.744V36H122.827Z" fill="#141414"/>
</svg>
